<?xml version="1.0" encoding="UTF-8"?>
<svg version="1.1" xmlns="http://www.w3.org/2000/svg" width="469" height="163">
<path d="M0 0 C154.77 0 309.54 0 469 0 C469 53.79 469 107.58 469 163 C314.23 163 159.46 163 0 163 C0 109.21 0 55.42 0 0 Z " fill="#212121" transform="translate(0,0)"/>
<path d="M0 0 C1.10001831 -0.00521549 2.20003661 -0.01043099 3.33338881 -0.01580453 C4.5518476 -0.01134309 5.77030639 -0.00688164 7.02568817 -0.002285 C8.31230488 -0.00540498 9.59892159 -0.00852497 10.92452669 -0.01173949 C14.50767764 -0.02012466 18.0907227 -0.01594546 21.67387414 -0.00976706 C25.53349813 -0.0052587 29.39310338 -0.01221826 33.25272369 -0.0177269 C40.81842032 -0.0266399 48.38407737 -0.02469043 55.94977558 -0.01890162 C62.09626331 -0.01439261 68.24273991 -0.01376892 74.38922882 -0.01594925 C75.26261919 -0.01625572 76.13600955 -0.01656218 77.03586629 -0.01687793 C78.80990676 -0.01751736 80.58394723 -0.01816578 82.3579877 -0.01882312 C99.00973869 -0.024532 115.66146769 -0.01795978 132.31321508 -0.00722238 C146.61431576 0.00171363 160.91538398 0.00016175 175.21648407 -0.00905991 C191.80692883 -0.0197527 208.3973543 -0.02398262 224.98780203 -0.01783538 C226.75547123 -0.01719825 228.52314043 -0.01656951 230.29080963 -0.01594925 C231.16063297 -0.0156407 232.0304563 -0.01533215 232.92663792 -0.01501425 C239.06875462 -0.01328433 245.21085913 -0.01620878 251.35297394 -0.02090836 C258.8338406 -0.02650621 266.31466527 -0.02502393 273.7955271 -0.01434687 C277.61546493 -0.00907532 281.43533263 -0.00705848 285.25527 -0.01364517 C289.38835834 -0.02066426 293.52126822 -0.01230752 297.65435028 -0.002285 C299.48203847 -0.00897717 299.48203847 -0.00897717 301.34664965 -0.01580453 C302.99667711 -0.00798129 302.99667711 -0.00798129 304.68003845 0 C306.11261592 0.00048706 306.11261592 0.00048706 307.57413435 0.00098395 C309.84001923 0.25168228 309.84001923 0.25168228 311.84001923 2.25168228 C312.038954 5.28432603 312.11264997 8.22568794 312.09880829 11.25949478 C312.10406525 12.65962814 312.10406525 12.65962814 312.10942841 14.08804703 C312.11825625 17.18433365 312.11239284 20.28039319 312.10564423 23.37668228 C312.10699057 25.52137674 312.10893085 27.6660709 312.11144257 29.81076431 C312.11439526 34.30998001 312.11009151 38.80911641 312.10076141 43.30832291 C312.08936683 49.08578173 312.09592553 54.86305475 312.10790634 60.64050674 C312.11512101 65.07046289 312.11283882 69.50037473 312.10765076 73.93033218 C312.10631317 76.06106971 312.10796576 78.19181121 312.11260986 80.3225441 C312.11766863 83.29642829 312.10997399 86.27000834 312.09880829 89.24386978 C312.10285675 90.13120804 312.10690521 91.0185463 312.11107635 91.93277359 C312.06854682 98.02315469 312.06854682 98.02315469 309.84001923 100.25168228 C307.57413435 100.50238061 307.57413435 100.50238061 304.68003845 100.50336456 C303.03001099 100.5111878 303.03001099 100.5111878 301.34664965 100.51916909 C300.12819086 100.51470765 298.90973207 100.51024621 297.65435028 100.50564957 C296.36773357 100.50876955 295.08111686 100.51188953 293.75551176 100.51510406 C290.17236081 100.52348922 286.58931575 100.51931002 283.00616431 100.51313162 C279.14654032 100.50862326 275.28693508 100.51558282 271.42731476 100.52109146 C263.86161813 100.53000446 256.29596108 100.52805499 248.73026288 100.52226618 C242.58377514 100.51775717 236.43729854 100.51713348 230.29080963 100.51931381 C229.41741927 100.51962028 228.5440289 100.51992674 227.64417216 100.5202425 C225.87013169 100.52088192 224.09609122 100.52153035 222.32205075 100.52218768 C205.67029976 100.52789656 189.01857076 100.52132435 172.36682338 100.51058695 C158.06572269 100.50165093 143.76465448 100.50320282 129.46355438 100.51242447 C112.87310962 100.52311727 96.28268415 100.52734718 79.69223642 100.52119994 C77.92456723 100.52056281 76.15689802 100.51993407 74.38922882 100.51931381 C73.08449382 100.51885099 73.08449382 100.51885099 71.75340053 100.51837881 C65.61128383 100.51664889 59.46917933 100.51957335 53.32706451 100.52427292 C45.84619785 100.52987077 38.36537318 100.52838849 30.88451135 100.51771143 C27.06457353 100.51243988 23.24470582 100.51042304 19.42476845 100.51700974 C15.29168011 100.52402883 11.15877023 100.51567208 7.02568817 100.50564957 C5.19799999 100.51234173 5.19799999 100.51234173 3.33338881 100.51916909 C2.2333705 100.5139536 1.13335219 100.5087381 0 100.50336456 C-0.95505165 100.50303986 -1.91010329 100.50271515 -2.8940959 100.50238061 C-5.15998077 100.25168228 -5.15998077 100.25168228 -7.15998077 98.25168228 C-7.35891555 95.21903853 -7.43261152 92.27767662 -7.41876984 89.24386978 C-7.42227448 88.31044754 -7.42577911 87.3770253 -7.42938995 86.41531754 C-7.4382178 83.31903091 -7.43235438 80.22297137 -7.42560577 77.12668228 C-7.42695212 74.98198782 -7.4288924 72.83729366 -7.43140411 70.69260025 C-7.43435681 66.19338455 -7.43005305 61.69424815 -7.42072296 57.19504166 C-7.40932838 51.41758284 -7.41588707 45.64030982 -7.42786789 39.86285782 C-7.43508256 35.43290167 -7.43280037 31.00298983 -7.4276123 26.57303238 C-7.42627472 24.44229485 -7.42792731 22.31155335 -7.43257141 20.18082047 C-7.43763018 17.20693627 -7.42993553 14.23335623 -7.41876984 11.25949478 C-7.42484253 9.9284874 -7.42484253 9.9284874 -7.4310379 8.57059097 C-7.38462039 1.92343753 -6.76407885 0.0022997 0 0 Z " fill="#252426" transform="translate(150.15998077392578,30.74831771850586)"/>
<path d="M0 0 C27.72 0 55.44 0 84 0 C84 15.84 84 31.68 84 48 C56.28 48 28.56 48 0 48 C0 32.16 0 16.32 0 0 Z " fill="#FDFDFD" transform="translate(25,111)"/>
<path d="M0 0 C27.72 0 55.44 0 84 0 C84 15.84 84 31.68 84 48 C56.28 48 28.56 48 0 48 C0 32.16 0 16.32 0 0 Z " fill="#FDFDFD" transform="translate(25,57)"/>
<path d="M0 0 C27.72 0 55.44 0 84 0 C84 15.84 84 31.68 84 48 C56.28 48 28.56 48 0 48 C0 32.16 0 16.32 0 0 Z " fill="#FEFEFE" transform="translate(25,3)"/>
<path d="M0 0 C1.27166016 -0.01998047 2.54332031 -0.03996094 3.85351562 -0.06054688 C15.5613813 -0.05441389 15.5613813 -0.05441389 20.1875 4.4375 C21.83203125 6.4375 21.83203125 6.4375 23 8.4375 C23.39832031 9.0975 23.79664063 9.7575 24.20703125 10.4375 C27.72075594 17.60493842 27.39498322 28.44026524 25.5390625 36.12109375 C23.0177307 41.64862885 18.41842304 45.86180867 12.99584961 48.50634766 C9.6474559 49.61656009 6.89472325 49.63360552 3.375 49.5625 C2.21355469 49.54445312 1.05210937 49.52640625 -0.14453125 49.5078125 C-1.46517578 49.47300781 -1.46517578 49.47300781 -2.8125 49.4375 C-2.78893433 50.78497314 -2.78893433 50.78497314 -2.76489258 52.15966797 C-2.71380745 55.48817692 -2.67617215 58.81627027 -2.64770508 62.14501953 C-2.63260517 63.58649258 -2.61212342 65.02791959 -2.58618164 66.46923828 C-2.5498487 68.53950343 -2.53278671 70.60916207 -2.51953125 72.6796875 C-2.49596558 74.54923096 -2.49596558 74.54923096 -2.47192383 76.45654297 C-2.58431396 77.44025879 -2.6967041 78.42397461 -2.8125 79.4375 C-5.78167403 81.41694936 -6.46952279 81.73100581 -9.8125 81.75 C-10.493125 81.76675781 -11.17375 81.78351563 -11.875 81.80078125 C-14.52630736 81.30366112 -15.21827923 80.6256312 -16.8125 78.4375 C-17.19345093 75.24963379 -17.19345093 75.24963379 -17.20068359 71.25976562 C-17.20856903 70.16906013 -17.20856903 70.16906013 -17.21661377 69.05632019 C-17.22982141 66.65191184 -17.22107339 64.24816513 -17.2109375 61.84375 C-17.21295803 60.17370476 -17.21586928 58.50366038 -17.21963501 56.83361816 C-17.22405938 53.33316652 -17.21762378 49.83294449 -17.20361328 46.33251953 C-17.18652119 41.84309869 -17.19636179 37.35421586 -17.21433067 32.86481476 C-17.22516553 29.41615741 -17.22172357 25.96762785 -17.2139473 22.51896667 C-17.21194446 20.86354 -17.21440751 19.20810177 -17.22138596 17.5526886 C-17.22899572 15.23989074 -17.21740388 12.92796704 -17.20068359 10.61523438 C-17.19829681 9.29857788 -17.19591003 7.98192139 -17.19345093 6.62536621 C-16.8125 3.4375 -16.8125 3.4375 -15.46421814 1.5141449 C-11.28557493 -1.20963392 -4.80214128 -0.02653117 0 0 Z " fill="#9E60F4" transform="translate(167.8125,40.5625)"/>
<path d="M0 0 C0.98871094 -0.01417969 1.97742188 -0.02835938 2.99609375 -0.04296875 C5.5625 0.1875 5.5625 0.1875 7.5625 2.1875 C7.82078552 4.55157471 7.82078552 4.55157471 7.83374023 7.55175781 C7.84392685 8.67342346 7.85411346 9.79508911 7.86460876 10.95074463 C7.86674881 12.16840515 7.86888885 13.38606567 7.87109375 14.640625 C7.89625931 17.2044293 7.92165725 19.76823133 7.94726562 22.33203125 C7.97802526 26.38522263 8.00020756 30.43843583 8.01879883 34.49169922 C8.03778472 38.39568751 8.07990888 42.2993077 8.12109375 46.203125 C8.12120956 47.4126886 8.12132538 48.6222522 8.1214447 49.86846924 C8.20317133 56.81816369 8.40696329 62.03196329 13.5625 67.1875 C17.02709235 67.41989871 17.02709235 67.41989871 20.5625 66.1875 C25.50616755 59.98436248 25.14889482 53.78978803 25.13671875 46.10546875 C25.15796562 44.22967888 25.15796562 44.22967888 25.17964172 42.31599426 C25.21437248 39.01068735 25.23282391 35.70584935 25.24243164 32.40039062 C25.25989512 27.72693857 25.30694314 23.05369494 25.35249329 18.38044739 C25.37502387 15.89538287 25.39081685 13.41024665 25.39933777 10.9250946 C25.40988945 9.24743767 25.40988945 9.24743767 25.4206543 7.53588867 C25.42413376 6.54884445 25.42761322 5.56180023 25.43119812 4.54484558 C25.5625 2.1875 25.5625 2.1875 26.5625 0.1875 C28.35383978 0.13358007 30.14563899 0.09474429 31.9375 0.0625 C32.93523437 0.03929687 33.93296875 0.01609375 34.9609375 -0.0078125 C37.5625 0.1875 37.5625 0.1875 39.5625 2.1875 C39.82992554 4.39057922 39.82992554 4.39057922 39.85302734 7.1652832 C39.86578705 8.20429276 39.87854675 9.24330231 39.89169312 10.313797 C39.89391876 11.4438768 39.89614441 12.5739566 39.8984375 13.73828125 C39.9050943 14.90320602 39.9117511 16.0681308 39.91860962 17.26835632 C39.92875782 19.74407368 39.93342597 22.21981851 39.93310547 24.69555664 C39.93743832 28.44660193 39.97362415 32.1964319 40.01171875 35.94726562 C40.01759482 38.35676683 40.02155892 40.76627361 40.0234375 43.17578125 C40.03780853 44.28359451 40.05217957 45.39140778 40.06698608 46.53279114 C40.01089497 56.32014051 38.32602867 67.65099662 31.5625 75.1875 C23.99634008 80.42430282 17.64143699 80.92251086 8.5625 80.1875 C3.15511862 77.72097516 -0.97673229 73.50907968 -3.37890625 68.046875 C-6.4277381 59.38642512 -6.58675708 51.04440038 -6.5703125 41.9453125 C-6.57126923 40.78119843 -6.57222595 39.61708435 -6.57321167 38.41769409 C-6.57388993 35.96856634 -6.57206039 33.51943676 -6.56787109 31.0703125 C-6.56248878 27.30464708 -6.56784292 23.53909937 -6.57421875 19.7734375 C-6.57355848 17.3932289 -6.57227837 15.01302038 -6.5703125 12.6328125 C-6.57233673 11.50062286 -6.57436096 10.36843323 -6.57644653 9.20193481 C-6.57329437 8.16350433 -6.57014221 7.12507385 -6.56689453 6.05517578 C-6.56609894 5.13697052 -6.56530334 4.21876526 -6.56448364 3.2727356 C-6.30954727 -0.91364922 -3.58648265 0.02331913 0 0 Z " fill="#9D60F3" transform="translate(360.4375,40.8125)"/>
<path d="M0 0 C3.2414796 6.82779745 5.71019473 13.80172917 8 21 C8.31453125 20.23816406 8.6290625 19.47632812 8.953125 18.69140625 C11.55183699 12.42162221 14.20442833 6.18461666 17 0 C24.38461538 -0.36923077 24.38461538 -0.36923077 27.5 1.5 C27.995 1.995 28.49 2.49 29 3 C28.3184422 8.11168348 26.89760281 12.76351654 25.25 17.625 C24.98630615 18.41753174 24.7226123 19.21006348 24.45092773 20.02661133 C22.5576381 25.62359559 20.36338886 31.00217897 17.78515625 36.32421875 C15.85893311 42.88871056 19.03994478 49.39219028 21.375 55.5 C21.67921875 56.31597656 21.9834375 57.13195312 22.296875 57.97265625 C23.6825461 61.66185752 25.11530051 65.31309079 26.69921875 68.921875 C27.99167081 71.98029008 28.63321181 73.74348211 28 77 C24.94098408 80.42609783 21.40967012 80.57599326 17 81 C14.66561061 77.38136201 13.13937005 73.90495361 11.8125 69.8125 C11.46832031 68.76707031 11.12414062 67.72164063 10.76953125 66.64453125 C10 64 10 64 10 62 C7.66477348 64.10712137 6.45751711 65.84023025 5.39453125 68.79296875 C5.13349609 69.50517578 4.87246094 70.21738281 4.60351562 70.95117188 C4.21196289 72.0581543 4.21196289 72.0581543 3.8125 73.1875 C3.53986328 73.93708984 3.26722656 74.68667969 2.98632812 75.45898438 C2.31673904 77.30329116 1.65736279 79.15130012 1 81 C-4.0470418 81.14267256 -6.85214122 81.01662457 -11 78 C-10.48661287 68.99340409 -6.75681099 61.10671198 -3.41796875 52.82226562 C-2.96808594 51.66275391 -2.51820313 50.50324219 -2.0546875 49.30859375 C-1.63687012 48.26501709 -1.21905273 47.22144043 -0.78857422 46.14624023 C0.69692171 40.21943342 -1.10851605 35.17429709 -3.25 29.62109375 C-3.91515625 27.86829102 -3.91515625 27.86829102 -4.59375 26.08007812 C-5.28984375 24.27700195 -5.28984375 24.27700195 -6 22.4375 C-6.9217217 20.04230375 -7.83856872 17.64522464 -8.75 15.24609375 C-9.15734375 14.19091553 -9.5646875 13.1357373 -9.984375 12.04858398 C-10.99018361 9.02946569 -11.56651134 6.14779914 -12 3 C-8.2391768 -0.7608232 -5.0273023 -0.25136512 0 0 Z " fill="#A061F7" transform="translate(311,41)"/>
<path d="M0 0 C4.23582327 -0.04938628 8.47149465 -0.08571263 12.70751953 -0.10986328 C14.14895547 -0.11992963 15.59037095 -0.1335838 17.03173828 -0.15087891 C19.10193934 -0.17510012 21.17187076 -0.18647641 23.2421875 -0.1953125 C25.11173096 -0.21102295 25.11173096 -0.21102295 27.01904297 -0.22705078 C30 0 30 0 32 2 C32.31900644 5.4452696 32.44227473 8.02973838 30.9921875 11.2109375 C27.9354898 13.95597191 24.69219975 13.42485535 20.8125 13.25 C16.9453125 13.12625 16.9453125 13.12625 13 13 C13 19.93 13 26.86 13 34 C14.959375 33.979375 16.91875 33.95875 18.9375 33.9375 C20.95832876 33.91622812 22.98035801 33.92755947 25 34 C26 35 26 35 26.1328125 37.46875 C26.13023437 38.4690625 26.12765625 39.469375 26.125 40.5 C26.12886719 42.00046875 26.12886719 42.00046875 26.1328125 43.53125 C26 46 26 46 25 47 C20.99779347 47.14355117 17.00558317 47.04216403 13 47 C13 53.93 13 60.86 13 68 C18.50483671 67.92095409 18.50483671 67.92095409 24.00927734 67.81982422 C26.00703478 67.80526262 28.00467217 67.90043274 30 68 C32.60704898 70.60704898 32.23905333 72.47338241 32.265625 76.02734375 C32 78 32 78 30 81 C27.14257812 81.37231445 27.14257812 81.37231445 23.53125 81.36328125 C22.23832031 81.36263672 20.94539063 81.36199219 19.61328125 81.36132812 C18.93861816 81.35302979 18.26395508 81.34473145 17.56884766 81.33618164 C15.50774049 81.3125886 13.4479266 81.31561974 11.38671875 81.32226562 C1.2667724 81.2667724 1.2667724 81.2667724 -1 79 C-1.19296679 76.5412485 -1.26239399 74.1956617 -1.24291992 71.73632812 C-1.24481827 70.98822372 -1.24671661 70.24011932 -1.24867249 69.46934509 C-1.25238524 66.98987436 -1.24166901 64.51069482 -1.23046875 62.03125 C-1.2292771 60.31254104 -1.22882376 58.59383142 -1.2290802 56.87512207 C-1.22751446 53.27038505 -1.21921803 49.66574722 -1.20581055 46.06103516 C-1.18882058 41.43376238 -1.18499616 36.80659871 -1.18575573 32.1792984 C-1.18548416 28.62948561 -1.18000512 25.0796968 -1.17275429 21.52989197 C-1.16956568 19.82340171 -1.16759977 18.11690873 -1.16686058 16.41041565 C-1.16469905 14.02812036 -1.15595887 11.64594213 -1.14526367 9.26367188 C-1.14571686 8.55399765 -1.14617004 7.84432343 -1.14663696 7.11314392 C-1.11447792 2.22895584 -1.11447792 2.22895584 0 0 Z " fill="#9E60F4" transform="translate(253,41)"/>
<path d="M0 0 C3.89305652 2.26675195 6.79065723 4.75076819 8.42578125 9.04296875 C8.61328125 12.85546875 8.61328125 12.85546875 8.42578125 16.04296875 C4.99792556 17.75689659 1.17474507 17.57853501 -2.57421875 17.04296875 C-4.19921875 15.04296875 -4.19921875 15.04296875 -5.57421875 13.04296875 C-10.2281965 12.6234152 -10.2281965 12.6234152 -14.57421875 14.04296875 C-15.08554063 19.05392316 -15.19335546 22.8195677 -12.19921875 27.04296875 C-9.92305179 30.02631592 -9.92305179 30.02631592 -7.57421875 31.04296875 C-7.57421875 31.70296875 -7.57421875 32.36296875 -7.57421875 33.04296875 C-7.00703125 33.27757812 -6.43984375 33.5121875 -5.85546875 33.75390625 C0.28292758 37.22252062 5.99933857 44.39014533 8.8359375 50.84765625 C10.49536221 57.02379325 10.44234412 63.60909581 7.80078125 69.48046875 C4.87277848 74.42211553 1.41757808 77.2824645 -4.01171875 79.35546875 C-10.98454567 80.70110201 -15.41410268 80.33991953 -21.484375 76.65625 C-25.5156131 73.54428489 -28.06284225 69.86795157 -28.9765625 64.8203125 C-29.07421875 62.66796875 -29.07421875 62.66796875 -28.57421875 59.04296875 C-25.08553224 56.71717774 -23.67703356 56.62431418 -19.57421875 57.04296875 C-15.91429802 58.97459358 -14.82996216 61.17109324 -13.57421875 65.04296875 C-10.15765851 65.20974157 -10.15765851 65.20974157 -6.57421875 65.04296875 C-4.27572715 63.13548369 -4.27572715 63.13548369 -4.07421875 59.91796875 C-5.19609334 51.2234407 -12.88463772 45.74419277 -18.87670898 39.91186523 C-25.23443155 33.60017976 -29.01979916 27.40235816 -29.94921875 18.41796875 C-29.83352831 12.22853042 -27.13044431 6.79630086 -22.953125 2.296875 C-16.59857654 -2.52711555 -7.3112368 -2.71813811 0 0 Z " fill="#9F61F5" transform="translate(442.57421875,41.95703125)"/>
<path d="M0 0 C1.66253917 -0.01173486 1.66253917 -0.01173486 3.35866499 -0.02370679 C4.58131072 -0.01701463 5.80395644 -0.01032246 7.06365204 -0.00342751 C8.35858471 -0.00810748 9.65351739 -0.01278745 10.98769045 -0.01760924 C14.58949825 -0.03017169 18.19106861 -0.02392523 21.79287744 -0.01465058 C25.67432558 -0.00788178 29.555732 -0.01833051 33.43717194 -0.02659035 C41.04385698 -0.03995314 48.65045338 -0.03703864 56.25714195 -0.02835242 C62.43744948 -0.02158628 68.61773212 -0.02065452 74.7980423 -0.02392387 C76.11581761 -0.02461342 76.11581761 -0.02461342 77.46021464 -0.0253169 C79.24472186 -0.02627605 81.02922906 -0.02724868 82.81373626 -0.02823468 C99.55995735 -0.03679603 116.30612922 -0.02694277 133.05234224 -0.01083358 C147.43158441 0.00257028 161.81075395 0.0002424 176.18999481 -0.01358986 C192.87495162 -0.02963253 209.55986526 -0.03597198 226.2448287 -0.02675307 C228.02289167 -0.02579739 229.80095465 -0.02485428 231.57901764 -0.02392387 C232.89139142 -0.02322963 232.89139142 -0.02322963 234.23027781 -0.02252137 C240.40550506 -0.01992754 246.58070501 -0.02431093 252.75592804 -0.03136253 C260.2781167 -0.03976317 267.8002114 -0.03752776 275.32238925 -0.0215203 C279.16273969 -0.01361814 283.0029333 -0.01057887 286.8432827 -0.02046776 C291.00012856 -0.03100999 295.15657599 -0.01845057 299.3134079 -0.00342751 C300.53605362 -0.01011967 301.75869935 -0.01681184 303.01839495 -0.02370679 C304.12675439 -0.01588355 305.23511384 -0.00806031 306.37705994 0 C307.817368 0.00073059 307.817368 0.00073059 309.2867732 0.00147593 C312.10858843 0.44329275 312.99860949 1.11611174 314.68852997 3.37752342 C315.06605339 5.26878929 315.06605339 5.26878929 315.0694809 7.43855858 C315.07794037 8.26293419 315.08639984 9.0873098 315.09511566 9.93666649 C315.08600662 11.28797661 315.08600662 11.28797661 315.07671356 12.66658592 C315.084599 14.0937896 315.084599 14.0937896 315.09264374 15.54982567 C315.10586805 18.70089098 315.09709692 21.8514528 315.08696747 25.00252342 C315.0889875 27.18823405 315.09189834 29.37394402 315.09566498 31.55965233 C315.10009163 36.14288811 315.09364619 40.72594862 315.07964325 45.30916405 C315.06255131 51.19082655 315.07239065 57.07207839 315.09036064 62.95372581 C315.10118918 67.46780568 315.09775639 71.98178782 315.08997726 76.49587059 C315.08797269 78.66485708 315.09044352 80.83385238 315.09741592 83.0028286 C315.105015 86.03161261 315.09344761 89.05972693 315.07671356 92.08846092 C315.08278625 92.98933434 315.08885895 93.89020775 315.09511566 94.81838036 C315.08665619 95.64275597 315.07819672 96.46713158 315.0694809 97.31648827 C315.06834982 98.03251213 315.06721874 98.748536 315.06605339 99.48625755 C314.55849575 102.02895131 313.72905625 102.79171143 311.68852997 104.37752342 C309.2867732 104.75357091 309.2867732 104.75357091 306.37705994 104.75504684 C304.71452077 104.76678171 304.71452077 104.76678171 303.01839495 104.77875364 C301.79574922 104.77206147 300.57310349 104.76536931 299.3134079 104.75847435 C298.01847522 104.76315432 296.72354255 104.76783429 295.38936949 104.77265608 C291.78756169 104.78521853 288.18599133 104.77897207 284.5841825 104.76969743 C280.70273435 104.76292863 276.82132794 104.77337735 272.939888 104.78163719 C265.33320296 104.79499998 257.72660655 104.79208549 250.11991799 104.78339927 C243.93961045 104.77663312 237.75932781 104.77570136 231.57901764 104.77897072 C230.26124233 104.77966027 230.26124233 104.77966027 228.91684529 104.78036375 C227.13233808 104.78132289 225.34783087 104.78229553 223.56332368 104.78328152 C206.81710259 104.79184287 190.07093072 104.78198961 173.3247177 104.76588042 C158.94547552 104.75247656 144.56630599 104.75480445 130.18706512 104.7686367 C113.50210832 104.78467938 96.81719468 104.79101883 80.13223124 104.78179991 C78.35416826 104.78084423 76.57610528 104.77990112 74.7980423 104.77897072 C73.48566851 104.77827648 73.48566851 104.77827648 72.14678213 104.77756821 C65.97155487 104.77497438 59.79635492 104.77935778 53.6211319 104.78640938 C46.09894324 104.79481002 38.57684854 104.7925746 31.05467069 104.77656715 C27.21432025 104.76866499 23.37412664 104.76562572 19.53377724 104.7755146 C15.37693138 104.78605684 11.22048395 104.77349741 7.06365204 104.75847435 C5.84100631 104.76516652 4.61836059 104.77185868 3.35866499 104.77875364 C2.25030554 104.7709304 1.1419461 104.76310715 0 104.75504684 C-0.96020538 104.75455979 -1.92041076 104.75407273 -2.90971327 104.75357091 C-5.73152849 104.31175409 -6.62154955 103.63893511 -8.31147003 101.37752342 C-8.68899345 99.48625755 -8.68899345 99.48625755 -8.69242096 97.31648827 C-8.70511017 96.07992485 -8.70511017 96.07992485 -8.71805573 94.81838036 C-8.71198303 93.91750694 -8.70591034 93.01663353 -8.69965363 92.08846092 C-8.70491058 91.13699181 -8.71016754 90.18552269 -8.7155838 89.20522118 C-8.72880811 86.05415587 -8.72003699 82.90359404 -8.70990753 79.75252342 C-8.71192756 77.5668128 -8.71483841 75.38110283 -8.71860504 73.19539452 C-8.7230317 68.61215874 -8.71658625 64.02909823 -8.70258331 59.4458828 C-8.68549137 53.5642203 -8.69533071 47.68296845 -8.7133007 41.80132103 C-8.72412925 37.28724116 -8.72069645 32.77325903 -8.71291733 28.25917625 C-8.71091275 26.09018976 -8.71338358 23.92119446 -8.72035599 21.75221825 C-8.72795506 18.72343424 -8.71638767 15.69531991 -8.69965363 12.66658592 C-8.70876266 11.3152758 -8.70876266 11.3152758 -8.71805573 9.93666649 C-8.70959625 9.11229088 -8.70113678 8.28791527 -8.69242096 7.43855858 C-8.69128988 6.72253471 -8.69015881 6.00651085 -8.68899345 5.26878929 C-7.72654276 0.44723376 -4.37460759 0.00221899 0 0 Z M-6.31147003 4.37752342 C-6.51040481 7.41016717 -6.58410077 10.35152908 -6.57025909 13.38533592 C-6.57376373 14.31875816 -6.57726837 15.2521804 -6.58087921 16.21388817 C-6.58970705 19.31017479 -6.58384364 22.40623433 -6.57709503 25.50252342 C-6.57844138 27.64721788 -6.58038165 29.79191204 -6.58289337 31.93660545 C-6.58584606 36.43582115 -6.58154231 40.93495755 -6.57221222 45.43416405 C-6.56081764 51.21162287 -6.56737633 56.98889589 -6.57935715 62.76634789 C-6.58657182 67.19630403 -6.58428962 71.62621587 -6.57910156 76.05617332 C-6.57776398 78.18691085 -6.57941657 80.31765235 -6.58406067 82.44838524 C-6.58911943 85.42226943 -6.58142479 88.39584948 -6.57025909 91.36971092 C-6.57430756 92.25704918 -6.57835602 93.14438744 -6.58252716 94.05861473 C-6.7699442 98.69859059 -6.7699442 98.69859059 -4.31147003 102.37752342 C-1.94611314 102.68113621 -1.94611314 102.68113621 0.84851074 102.6292057 C2.4985382 102.63702895 2.4985382 102.63702895 4.18189955 102.64501023 C6.00958773 102.63831807 6.00958773 102.63831807 7.87419891 102.63149071 C9.16081563 102.63461069 10.44743234 102.63773067 11.77303743 102.6409452 C15.35618838 102.64933036 18.93923344 102.64515116 22.52238488 102.63897276 C26.38200887 102.6344644 30.24161412 102.64142396 34.10123444 102.6469326 C41.66693107 102.6558456 49.23258811 102.65389613 56.79828632 102.64810732 C62.94477405 102.64359831 69.09125065 102.64297462 75.23773956 102.64515495 C76.54782511 102.64561465 76.54782511 102.64561465 77.88437703 102.64608364 C79.65841751 102.64672306 81.43245798 102.64737149 83.20649844 102.64802882 C99.85824943 102.6537377 116.50997844 102.64716549 133.16172582 102.63642809 C147.4628265 102.62749207 161.76389472 102.62904396 176.06499481 102.63826561 C192.65543957 102.64895841 209.24586504 102.65318833 225.83631277 102.64704108 C227.60398197 102.64640396 229.37165117 102.64577521 231.13932037 102.64515495 C232.00914371 102.6448464 232.87896704 102.64453785 233.77514866 102.64421995 C239.91726536 102.64249003 246.05936987 102.64541449 252.20148468 102.65011406 C259.68235134 102.65571191 267.16317602 102.65422963 274.64403784 102.64355257 C278.46397567 102.63828102 282.28384337 102.63626419 286.10378075 102.64285088 C290.23686908 102.64986997 294.36977896 102.64151323 298.50286102 102.63149071 C299.72131981 102.63595215 300.9397786 102.64041359 302.19516039 102.64501023 C303.29517869 102.63979474 304.395197 102.63457924 305.52854919 102.6292057 C306.48360084 102.628881 307.43865249 102.62855629 308.42264509 102.62822175 C310.88840885 102.59434995 310.88840885 102.59434995 312.68852997 100.37752342 C312.88746474 97.34487967 312.96116071 94.40351776 312.94731903 91.36971092 C312.95082367 90.43628868 312.95432831 89.50286644 312.95793915 88.54115868 C312.96676699 85.44487205 312.96090358 82.34881251 312.95415497 79.25252342 C312.95550131 77.10782896 312.95744159 74.9631348 312.95995331 72.81844139 C312.962906 68.31922569 312.95860225 63.8200893 312.94927216 59.3208828 C312.93787758 53.54342398 312.94443627 47.76615096 312.95641708 41.98869896 C312.96363175 37.55874281 312.96134956 33.12883098 312.9561615 28.69887352 C312.95482391 26.56813599 312.9564765 24.43739449 312.96112061 22.30666161 C312.96617937 19.33277741 312.95848473 16.35919737 312.94731903 13.38533592 C312.95339172 12.05432854 312.95339172 12.05432854 312.9595871 10.69643211 C313.14700414 6.05645625 313.14700414 6.05645625 310.68852997 2.37752342 C308.32317308 2.07391064 308.32317308 2.07391064 305.52854919 2.12584114 C304.42853089 2.12062565 303.32851258 2.11541015 302.19516039 2.11003661 C300.3674722 2.11672878 300.3674722 2.11672878 298.50286102 2.12355614 C297.21624431 2.12043616 295.9296276 2.11731617 294.6040225 2.11410165 C291.02087155 2.10571648 287.4378265 2.10989568 283.85467505 2.11607409 C279.99505106 2.12058244 276.13544582 2.11362288 272.2758255 2.10811424 C264.71012887 2.09920124 257.14447183 2.10115071 249.57877362 2.10693952 C243.43228589 2.11144853 237.28580928 2.11207223 231.13932037 2.10989189 C230.26593001 2.10958543 229.39253964 2.10927896 228.4926829 2.10896321 C226.71864243 2.10832378 224.94460196 2.10767536 223.17056149 2.10701802 C206.5188105 2.10130914 189.8670815 2.10788136 173.21533412 2.11861876 C158.91423344 2.12755477 144.61316522 2.12600289 130.31206512 2.11678123 C113.72162036 2.10608844 97.13119489 2.10185852 80.54074717 2.10800576 C78.77307797 2.10864289 77.00540877 2.10927163 75.23773956 2.10989189 C74.36791623 2.11020044 73.49809289 2.11050899 72.60191128 2.11082689 C66.45979458 2.11255681 60.31769007 2.10963236 54.17557526 2.10493279 C46.69470859 2.09933493 39.21388392 2.10081722 31.73302209 2.11149427 C27.91308427 2.11676582 24.09321656 2.11878266 20.27327919 2.11219597 C16.14019085 2.10517688 12.00728098 2.11353362 7.87419891 2.12355614 C6.65574012 2.11909469 5.43728133 2.11463325 4.18189955 2.11003661 C2.53187209 2.11785985 2.53187209 2.11785985 0.84851074 2.12584114 C-0.1065409 2.12616585 -1.06159255 2.12649055 -2.04558516 2.12682509 C-4.51134891 2.1606969 -4.51134891 2.1606969 -6.31147003 4.37752342 Z " fill="#607BFE" transform="translate(149.31147003173828,28.62247657775879)"/>
<path d="M0 0 C0.99 0.66 1.98 1.32 3 2 C3.36076355 4.74612427 3.36076355 4.74612427 3.34057617 8.28564453 C3.34101425 8.92967224 3.34145233 9.57369995 3.34190369 10.23724365 C3.33981094 12.36940664 3.31645865 14.50078662 3.29296875 16.6328125 C3.28737448 18.10968598 3.28310359 19.58656502 3.28010559 21.06344604 C3.26864335 24.95326063 3.23916473 28.8427399 3.20599365 32.73242188 C3.17532222 36.70047469 3.16160655 40.6685816 3.14648438 44.63671875 C3.11429599 52.42463214 3.06308345 60.21226911 3 68 C4.82337891 67.98259766 4.82337891 67.98259766 6.68359375 67.96484375 C8.26822764 67.95546722 9.85286318 67.94636687 11.4375 67.9375 C12.23994141 67.92912109 13.04238281 67.92074219 13.86914062 67.91210938 C15.91295221 67.9034857 17.95683902 67.9477185 20 68 C21.66561399 69.66561399 21.17115945 71.65962705 21.1875 73.9375 C21.20167969 74.83339844 21.21585938 75.72929688 21.23046875 76.65234375 C21 79 21 79 19 81 C16.32617187 81.24291992 16.32617187 81.24291992 12.96875 81.23046875 C11.16470703 81.22756836 11.16470703 81.22756836 9.32421875 81.22460938 C8.06222656 81.21236328 6.80023438 81.20011719 5.5 81.1875 C3.60701172 81.1865332 3.60701172 81.1865332 1.67578125 81.18554688 C-7.71953632 81.14023184 -7.71953632 81.14023184 -10 80 C-10 53.93 -10 27.86 -10 1 C-6.87293041 -0.5635348 -3.42017557 -0.39958487 0 0 Z " fill="#A061F7" transform="translate(217,41)"/>
<path d="M0 0 C2.10304477 -0.1080023 4.20766909 -0.18558987 6.3125 -0.25 C8.07013672 -0.31960937 8.07013672 -0.31960937 9.86328125 -0.390625 C13 0 13 0 14.89453125 1.61328125 C16.32007421 4.69104362 16.39849001 7.05102343 16.375 10.4375 C16.38273437 11.54996094 16.39046875 12.66242188 16.3984375 13.80859375 C15.96242553 17.30096417 15.08751599 19.19458217 13 22 C10.49860398 23.25069801 8.72607309 23.13302467 5.9375 23.125 C4.58978516 23.12886719 4.58978516 23.12886719 3.21484375 23.1328125 C1 23 1 23 0 22 C-0.08700342 20.36527118 -0.10701063 18.72685945 -0.09765625 17.08984375 C-0.09443359 16.10048828 -0.09121094 15.11113281 -0.08789062 14.09179688 C-0.07951172 13.05087891 -0.07113281 12.00996094 -0.0625 10.9375 C-0.05798828 9.89271484 -0.05347656 8.84792969 -0.04882812 7.77148438 C-0.03699913 5.1809334 -0.02051689 2.59049441 0 0 Z " fill="#211F23" transform="translate(165,54)"/>
<path d="M0 0 C4.29 0 8.58 0 13 0 C13.09765625 9.27734375 13.09765625 9.27734375 13 12 C12 13 12 13 9.27734375 13.09765625 C6.18489583 13.06510417 3.09244792 13.03255208 0 13 C0 8.71 0 4.42 0 0 Z " fill="#E2E2E2" transform="translate(115,111)"/>
<path d="M0 0 C3.96 0 7.92 0 12 0 C12 4.29 12 8.58 12 13 C8.04 13 4.08 13 0 13 C0 8.71 0 4.42 0 0 Z " fill="#E6E6E6" transform="translate(115,147)"/>
<path d="M0 0 C3.96 0 7.92 0 12 0 C12 4.29 12 8.58 12 13 C8.04 13 4.08 13 0 13 C0 8.71 0 4.42 0 0 Z " fill="#E6E6E6" transform="translate(115,129)"/>
<path d="M0 0 C4.29 0 8.58 0 13 0 C13 3.96 13 7.92 13 12 C8.71 12 4.42 12 0 12 C0 8.04 0 4.08 0 0 Z " fill="#E9E9E9" transform="translate(115,93)"/>
<path d="M0 0 C4.29 0 8.58 0 13 0 C13 3.96 13 7.92 13 12 C8.71 12 4.42 12 0 12 C0 8.04 0 4.08 0 0 Z " fill="#E9E9E9" transform="translate(115,75)"/>
<path d="M0 0 C4.29 0 8.58 0 13 0 C13 3.96 13 7.92 13 12 C8.71 12 4.42 12 0 12 C0 8.04 0 4.08 0 0 Z " fill="#E9E9E9" transform="translate(115,57)"/>
<path d="M0 0 C3.96 0 7.92 0 12 0 C12 3.96 12 7.92 12 12 C8.04 12 4.08 12 0 12 C0 8.04 0 4.08 0 0 Z " fill="#F9F9F9" transform="translate(7,111)"/>
<path d="M0 0 C3.96 0 7.92 0 12 0 C12 3.96 12 7.92 12 12 C8.04 12 4.08 12 0 12 C0 8.04 0 4.08 0 0 Z " fill="#F9F9F9" transform="translate(7,93)"/>
<path d="M0 0 C3.96 0 7.92 0 12 0 C12 3.96 12 7.92 12 12 C8.04 12 4.08 12 0 12 C0 8.04 0 4.08 0 0 Z " fill="#F9F9F9" transform="translate(7,75)"/>
<path d="M0 0 C3.96 0 7.92 0 12 0 C12 3.96 12 7.92 12 12 C8.04 12 4.08 12 0 12 C0 8.04 0 4.08 0 0 Z " fill="#F9F9F9" transform="translate(7,57)"/>
<path d="M0 0 C3.96 0 7.92 0 12 0 C12 3.96 12 7.92 12 12 C8.04 12 4.08 12 0 12 C0 8.04 0 4.08 0 0 Z " fill="#F8F8F8" transform="translate(115,39)"/>
<path d="M0 0 C3.96 0 7.92 0 12 0 C12 3.96 12 7.92 12 12 C8.04 12 4.08 12 0 12 C0 8.04 0 4.08 0 0 Z " fill="#FEFEFE" transform="translate(7,39)"/>
<path d="M0 0 C3.96 0 7.92 0 12 0 C12 3.96 12 7.92 12 12 C8.04 12 4.08 12 0 12 C0 8.04 0 4.08 0 0 Z " fill="#F8F8F8" transform="translate(115,21)"/>
<path d="M0 0 C3.96 0 7.92 0 12 0 C12 3.96 12 7.92 12 12 C8.04 12 4.08 12 0 12 C0 8.04 0 4.08 0 0 Z " fill="#FEFEFE" transform="translate(7,21)"/>
<path d="M0 0 C3.96 0 7.92 0 12 0 C12 3.96 12 7.92 12 12 C8.04 12 4.08 12 0 12 C0 8.04 0 4.08 0 0 Z " fill="#F8F8F8" transform="translate(115,3)"/>
<path d="M0 0 C3.96 0 7.92 0 12 0 C12 3.96 12 7.92 12 12 C8.04 12 4.08 12 0 12 C0 8.04 0 4.08 0 0 Z " fill="#FEFEFE" transform="translate(7,3)"/>
<path d="M0 0 C3.96 0 7.92 0 12 0 C12 3.63 12 7.26 12 11 C8.04 11 4.08 11 0 11 C0 7.37 0 3.74 0 0 Z " fill="#FEFEFE" transform="translate(7,148)"/>
<path d="M0 0 C3.96 0 7.92 0 12 0 C12 3.63 12 7.26 12 11 C8.04 11 4.08 11 0 11 C0 7.37 0 3.74 0 0 Z " fill="#FEFEFE" transform="translate(7,130)"/>
</svg>
